# xmcd
#
# Track frame offsets: 
#        150
#        15661
#        33990
#        45944
#        58141
#        70187
#        82266
#        91733
#        106722
#        118519
#        130790
#        142479
#
# Disc length: 2090 seconds
#
# Revision: 0
# Processed by: cddbd v1.5.2PL0 Copyright (c) Steve Scherf et al.
# Submitted via: ExactAudioCopyFreeDBPlugin 1.0
#
DISCID=9e08280c
DTITLE=The Wanton Bishops - Sleep With The Lights On
DYEAR=2016
DGENRE=Blues
TTITLE0=Sleep With The Lights On
TTITLE1=Come To Me
TTITLE2=Bad Rhyme
TTITLE3=My Kinda Lovin'
TTITLE4=Bad Liver and a Broken Heart
TTITLE5=Time to Go
TTITLE6=Whoopy (Intro)
TTITLE7=Whoopy
TTITLE8=Oh Wee
TTITLE9=Howl
TTITLE10=Smith and Wesson
TTITLE11=Sun Rising
EXTD=
EXTT0=
EXTT1=
EXTT2=
EXTT3=
EXTT4=
EXTT5=
EXTT6=
EXTT7=
EXTT8=
EXTT9=
EXTT10=
EXTT11=
PLAYORDER=
